<svg width="1200" height="280" viewBox="0 0 1200 280" fill="none" xmlns="http://www.w3.org/2000/svg">
  <title>Vape KSA</title>
  <desc>Transparent Vape KSA wordmark logo</desc>
  <g aria-label="vape">
    <path d="M64 72H95.6L138.4 179.8L181 72H212.8L152.2 214H124.4L64 72Z" fill="#FFFFFF"/>
    <path d="M320.16 99.2V72H347.56V214H320.16V198.2C309.893 210.067 295.16 216 275.96 216C256.093 216 239.427 208.933 225.96 194.8C212.627 180.533 205.96 162.533 205.96 140.8C205.96 119.067 212.627 101.133 225.96 87C239.427 72.7333 256.093 65.6 275.96 65.6C295.16 65.6 309.893 71.4667 320.16 83.2V99.2ZM246.36 176.4C254.627 184.667 264.96 188.8 277.36 188.8C289.76 188.8 300.093 184.667 308.36 176.4C316.627 168.133 320.76 156.267 320.76 140.8C320.76 125.333 316.627 113.467 308.36 105.2C300.093 96.9333 289.76 92.8 277.36 92.8C264.96 92.8 254.627 96.9333 246.36 105.2C238.093 113.467 233.96 125.333 233.96 140.8C233.96 156.267 238.093 168.133 246.36 176.4Z" fill="#FFFFFF"/>
    <path d="M440.894 65.6C459.961 65.6 476.161 72.7333 489.494 87C502.961 101.133 509.694 119.067 509.694 140.8C509.694 162.533 502.961 180.533 489.494 194.8C476.161 208.933 459.961 216 440.894 216C421.694 216 406.894 210.067 396.494 198.2V260.8H369.094V72H396.494V99.2C406.894 77.4667 421.694 65.6 440.894 65.6ZM404.894 176.4C413.161 184.667 423.494 188.8 435.894 188.8C448.294 188.8 458.627 184.667 466.894 176.4C475.161 168.133 479.294 156.267 479.294 140.8C479.294 125.333 475.161 113.467 466.894 105.2C458.627 96.9333 448.294 92.8 435.894 92.8C423.494 92.8 413.161 96.9333 404.894 105.2C396.627 113.467 392.494 125.333 392.494 140.8C392.494 156.267 396.627 168.133 404.894 176.4Z" fill="#FFFFFF"/>
    <path d="M563.582 157.2C567.449 168.133 574.382 176.467 584.382 182.2C594.382 187.933 606.382 190.8 620.382 190.8C639.715 190.8 654.449 184.333 664.582 171.4L686.982 184.4C671.382 205.467 648.982 216 619.782 216C595.249 216 575.449 208.933 560.382 194.8C545.449 180.667 537.982 162.667 537.982 140.8C537.982 119.2 545.315 101.267 559.982 87C574.782 72.7333 593.782 65.6 616.982 65.6C638.982 65.6 656.915 73 670.782 87.8C684.649 102.467 691.582 120.133 691.582 140.8C691.582 144.4 691.249 149.867 690.582 157.2H563.582ZM563.182 135.2H664.182C660.715 123.467 654.715 114.6 646.182 108.6C637.649 102.6 627.915 99.6 616.982 99.6C604.582 99.6 594.049 102.8 585.382 109.2C576.849 115.6 569.449 124.267 563.182 135.2Z" fill="#FFFFFF"/>
  </g>
  <g aria-label="KSA">
    <path d="M777.212 214V72H817.812V132.8L875.612 72H926.612L861.012 139.2L930.012 214H878.212L817.812 146.2V214H777.212Z" fill="#2196F3"/>
    <path d="M1010.35 217.6C983.147 217.6 960.614 211.333 942.747 198.8C925.014 186.133 916.147 169 916.147 147.4H959.547C959.547 155.133 963.214 161.2 970.547 165.6C978.014 169.867 987.547 172 999.147 172C1010.08 172 1018.61 170 1024.75 166C1030.88 161.867 1033.95 156.4 1033.95 149.6C1033.95 142.4 1030.61 136.867 1023.95 133C1017.28 129 1006.55 125 991.747 121C986.147 119.533 981.347 118.133 977.347 116.8C973.347 115.333 968.747 113.4 963.547 111C958.347 108.6 954.08 106 950.747 103.2C947.414 100.267 944.48 96.4667 941.947 91.8C939.547 87 938.347 81.7333 938.347 76C938.347 55.7333 946.414 39.3333 962.547 26.8C978.68 14.2667 999.28 8 1024.35 8C1046.08 8 1065.14 13.3333 1081.55 24C1098.08 34.5333 1109.68 49.5333 1116.35 69H1073.75C1069.22 57.1333 1058.02 51.2 1040.15 51.2C1031.88 51.2 1025.08 53 1019.75 56.6C1014.55 60.0667 1011.95 64.9333 1011.95 71.2C1011.95 77.8667 1015.35 83.2 1022.15 87.2C1029.08 91.2 1039.74 94.8667 1054.15 98.2C1060.15 99.8 1065.02 101.2 1068.75 102.4C1072.62 103.6 1077.22 105.467 1082.55 108C1088.02 110.4 1092.28 113 1095.35 115.8C1098.55 118.467 1101.42 122.133 1103.95 126.8C1106.48 131.333 1107.75 136.467 1107.75 142.2C1107.75 163 1099.22 179.6 1082.15 192C1065.08 204.267 1041.15 212.8 1010.35 217.6Z" fill="#2196F3"/>
    <path d="M1090.59 214L1140.59 72H1189.39L1239.39 214H1196.19L1187.79 188.6H1142.19L1133.99 214H1090.59ZM1153.79 154.8H1176.39L1165.19 118.8L1153.79 154.8Z" fill="#2196F3"/>
  </g>
</svg>
